<svg width="98" height="22" viewBox="0 0 98 22" fill="none" xmlns="http://www.w3.org/2000/svg">
<path d="M6.88259 17H4.33859C3.07459 17 2.09859 16.664 1.41059 15.992C0.722594 15.32 0.378594 14.352 0.378594 13.088V5.48C0.378594 4.216 0.722594 3.248 1.41059 2.576C2.09859 1.904 3.07459 1.568 4.33859 1.568H6.88259C8.13059 1.568 9.09859 1.912 9.78659 2.6C10.4746 3.272 10.8186 4.232 10.8186 5.48V6.2C10.8186 6.552 10.6506 6.728 10.3146 6.728H8.27459C7.93859 6.728 7.77059 6.552 7.77059 6.2V5.624C7.77059 5.112 7.66659 4.752 7.45859 4.544C7.25059 4.32 6.89059 4.208 6.37859 4.208H4.81859C4.32259 4.208 3.96259 4.32 3.73859 4.544C3.53059 4.752 3.42659 5.112 3.42659 5.624V12.944C3.42659 13.456 3.53059 13.824 3.73859 14.048C3.96259 14.256 4.32259 14.36 4.81859 14.36H6.37859C6.89059 14.36 7.25059 14.256 7.45859 14.048C7.66659 13.824 7.77059 13.456 7.77059 12.944V11.432C7.77059 11.256 7.68259 11.168 7.50659 11.168H6.06659C5.73059 11.168 5.56259 11 5.56259 10.664V9.032C5.56259 8.696 5.73059 8.528 6.06659 8.528H10.2666C10.6346 8.528 10.8186 8.712 10.8186 9.08V13.088C10.8186 14.336 10.4746 15.304 9.78659 15.992C9.09859 16.664 8.13059 17 6.88259 17ZM17.7527 17H17.1767C15.9127 17 14.9367 16.664 14.2487 15.992C13.5607 15.32 13.2167 14.352 13.2167 13.088V8.672C13.2167 7.408 13.5607 6.44 14.2487 5.768C14.9367 5.096 15.9127 4.76 17.1767 4.76H22.7207C23.0727 4.76 23.2487 4.928 23.2487 5.264V16.496C23.2487 16.832 23.0727 17 22.7207 17H20.7047C20.3687 17 20.2007 16.832 20.2007 16.496V15.704H20.1047C19.9287 16.136 19.6167 16.464 19.1687 16.688C18.7207 16.896 18.2487 17 17.7527 17ZM20.2007 12.536V7.664C20.2007 7.488 20.1047 7.4 19.9127 7.4H17.6567C17.1447 7.4 16.7847 7.512 16.5767 7.736C16.3687 7.944 16.2647 8.304 16.2647 8.816V12.944C16.2647 13.456 16.3687 13.824 16.5767 14.048C16.7847 14.256 17.1447 14.36 17.6567 14.36H18.5447C19.6487 14.36 20.2007 13.752 20.2007 12.536ZM28.4226 17H26.3826C26.0466 17 25.8786 16.832 25.8786 16.496V5.264C25.8786 4.928 26.0466 4.76 26.3826 4.76H28.4226C28.7586 4.76 28.9266 4.928 28.9266 5.264V6.056H29.0226C29.2146 5.672 29.5346 5.36 29.9826 5.12C30.4466 4.88 30.9746 4.76 31.5666 4.76H32.2386C33.6306 4.76 34.6306 5.272 35.2386 6.296C35.7826 5.272 36.7186 4.76 38.0466 4.76H38.7426C39.9746 4.76 40.9026 5.096 41.5266 5.768C42.1666 6.44 42.4866 7.408 42.4866 8.672V16.496C42.4866 16.832 42.3186 17 41.9826 17H39.9426C39.6066 17 39.4386 16.832 39.4386 16.496V8.816C39.4386 8.304 39.3346 7.944 39.1266 7.736C38.9186 7.512 38.5586 7.4 38.0466 7.4H37.4466C36.3426 7.4 35.7906 8.016 35.7906 9.248V16.496C35.7906 16.832 35.6146 17 35.2626 17H33.2466C32.9106 17 32.7426 16.832 32.7426 16.496V8.816C32.7426 8.304 32.6306 7.944 32.4066 7.736C32.1986 7.512 31.8386 7.4 31.3266 7.4H30.5826C29.4786 7.4 28.9266 8.008 28.9266 9.224V16.496C28.9266 16.832 28.7586 17 28.4226 17ZM54.051 17H48.747C47.483 17 46.507 16.664 45.819 15.992C45.131 15.32 44.787 14.352 44.787 13.088V8.672C44.787 7.408 45.131 6.44 45.819 5.768C46.507 5.096 47.483 4.76 48.747 4.76H50.643C51.907 4.76 52.883 5.096 53.571 5.768C54.259 6.44 54.603 7.408 54.603 8.672V11.72C54.603 12.056 54.435 12.224 54.099 12.224H48.075C47.883 12.224 47.787 12.312 47.787 12.488V13.016C47.787 13.512 47.891 13.872 48.099 14.096C48.323 14.304 48.691 14.408 49.203 14.408H54.051C54.387 14.408 54.555 14.584 54.555 14.936V16.52C54.555 16.696 54.515 16.824 54.435 16.904C54.371 16.968 54.243 17 54.051 17ZM48.075 10.184H51.339C51.515 10.184 51.603 10.096 51.603 9.92V8.768C51.603 8.256 51.499 7.896 51.291 7.688C51.083 7.48 50.723 7.376 50.211 7.376H49.203C48.691 7.376 48.331 7.48 48.123 7.688C47.915 7.896 47.811 8.256 47.811 8.768V9.92C47.811 10.096 47.899 10.184 48.075 10.184Z" fill="#DDE3F0"/>
<path d="M59.6704 17H57.6304C57.2944 17 57.1264 16.832 57.1264 16.496V2.072C57.1264 1.736 57.2944 1.568 57.6304 1.568H63.4864C64.7344 1.568 65.7024 1.912 66.3904 2.6C67.0784 3.272 67.4224 4.232 67.4224 5.48V7.784C67.4224 9.032 67.0784 10 66.3904 10.688C65.7024 11.36 64.7344 11.696 63.4864 11.696H60.4624C60.2704 11.696 60.1744 11.784 60.1744 11.96V16.496C60.1744 16.832 60.0064 17 59.6704 17ZM60.4384 9.032H62.9824C63.4944 9.032 63.8544 8.928 64.0624 8.72C64.2704 8.496 64.3744 8.136 64.3744 7.64V5.624C64.3744 5.112 64.2704 4.752 64.0624 4.544C63.8544 4.32 63.4944 4.208 62.9824 4.208H60.4384C60.2624 4.208 60.1744 4.296 60.1744 4.472V8.768C60.1744 8.944 60.2624 9.032 60.4384 9.032ZM72.277 17H70.237C69.901 17 69.733 16.832 69.733 16.496V0.631999C69.733 0.296 69.901 0.128 70.237 0.128H72.277C72.613 0.128 72.781 0.296 72.781 0.631999V16.496C72.781 16.832 72.613 17 72.277 17ZM79.8387 17H79.2627C77.9987 17 77.0227 16.664 76.3347 15.992C75.6467 15.32 75.3027 14.352 75.3027 13.088V8.672C75.3027 7.408 75.6467 6.44 76.3347 5.768C77.0227 5.096 77.9987 4.76 79.2627 4.76H84.8067C85.1587 4.76 85.3347 4.928 85.3347 5.264V16.496C85.3347 16.832 85.1587 17 84.8067 17H82.7907C82.4547 17 82.2867 16.832 82.2867 16.496V15.704H82.1907C82.0147 16.136 81.7027 16.464 81.2547 16.688C80.8067 16.896 80.3347 17 79.8387 17ZM82.2867 12.536V7.664C82.2867 7.488 82.1907 7.4 81.9987 7.4H79.7427C79.2307 7.4 78.8707 7.512 78.6627 7.736C78.4547 7.944 78.3507 8.304 78.3507 8.816V12.944C78.3507 13.456 78.4547 13.824 78.6627 14.048C78.8707 14.256 79.2307 14.36 79.7427 14.36H80.6307C81.7347 14.36 82.2867 13.752 82.2867 12.536ZM89.9565 21.056H88.4205C88.1005 21.056 87.9405 20.88 87.9405 20.528V18.92C87.9405 18.568 88.1005 18.392 88.4205 18.392H88.9245C89.9325 18.392 90.6125 18.248 90.9645 17.96C91.3325 17.688 91.6125 17.152 91.8045 16.352H90.5325C90.2285 16.352 90.0285 16.184 89.9325 15.848L87.1245 5.264C87.0285 4.928 87.1485 4.76 87.4845 4.76H89.6205C89.9405 4.76 90.1405 4.928 90.2205 5.264L92.2845 14.12H92.3805L94.4205 5.264C94.4845 4.928 94.6845 4.76 95.0205 4.76H97.0365C97.4365 4.76 97.5965 4.936 97.5165 5.288L94.5885 17C94.2365 18.328 93.6925 19.336 92.9565 20.024C92.2205 20.712 91.2205 21.056 89.9565 21.056Z" fill="#E61C44"/>
</svg>
